<?xml version="1.0" encoding="UTF-8" standalone="no"?>
<svg width="36px" height="40px" viewBox="0 0 36 40" version="1.1" xmlns="http://www.w3.org/2000/svg" xmlns:xlink="http://www.w3.org/1999/xlink" xmlns:sketch="http://www.bohemiancoding.com/sketch/ns">
    <defs>
        <path d="M28.1059825,0.106408332 C31.7155922,3.26407967 34,7.93381026 34,13.1439917 C34,22.654231 26.3888407,30.3638032 17,30.3638032 C7.61115925,30.3638032 0,22.654231 0,13.1439917 C0,7.89674406 2.31702678,3.19766436 5.97125671,0.0392454778 C5.74141146,1.33757583 5.80395991,3.13247348 7.90697674,3.13247348 C12.5214306,3.13247348 14.496124,5.40175096 15.6821705,7.13708079 C16.8682171,8.87241062 14.7596899,12.2095834 14.496124,12.6100441 C14.2325581,13.0105048 16.0775194,14.4788609 16.0775194,14.4788609 C16.0775194,14.4788609 16.8682171,15.0128085 17.2635659,15.0128085 C17.6589147,15.0128085 18.1860465,14.4788609 18.1860465,14.4788609 L19.8992248,12.743531 C19.8992248,12.743531 17.7906977,10.0737928 18.9767442,7.2705677 C20.1627907,4.46734258 22.4031008,3.53293421 24.7751938,3.53293421 C27.1472868,3.53293421 27.1472868,5.53523787 27.1472868,4.60082949 C28.9922481,2.59852584 27.0155039,0.863196007 27.0155039,0.863196007 C27.0155039,0.863196007 27.7289831,0.646384624 28.1059825,0.106408332 Z" id="path-1"></path>
        <path id="path-3" d="M11.3333333,0.13348691 C11.3333333,0.13348691 15.5503876,1.86881673 17.7906977,5.20598961 C18.3178295,5.87342416 18.3178295,6.00691107 18.3178295,7.20829315 C18.3178295,7.20829315 18.4496124,10.1450052 18.4496124,10.6789528 C18.4496124,11.2129005 18.5813953,13.2152041 18.5813953,13.2152041 C18.5813953,13.2152041 18.5813953,15.8849423 18.5813953,15.8849423 C18.5813953,15.8849423 18.7131783,17.887246 18.7131783,17.887246 C18.7131783,17.887246 18.1860465,18.1542198 18.1860465,18.1542198 C18.1860465,18.1542198 18.1860465,19.8895496 18.1860465,19.8895496 L18.3178295,22.1588271 C18.3178295,22.1588271 15.8139535,24.2946177 10.5426357,24.2946177 C5.27131783,24.2946177 0.395348837,22.9597486 0.395348837,22.9597486 C0.395348837,22.9597486 0.263565891,19.0886282 0.263565891,18.8216543 C0.263565891,18.5546805 0.395348837,15.0840209 0.395348837,15.0840209 L0.263565891,9.47757063 L0.131782946,7.20829315 C0.131782946,7.20829315 0.131782946,6.00691119 0.658914729,5.20598961 C3.03100775,2.53625141 5.27131783,0.667434551 6.98449612,0.13348691 C8.69767442,-0.400460731 11.3333333,0.13348691 11.3333333,0.13348691 Z"></path>
    </defs>
    <g id="Homepage" stroke="none" stroke-width="1" fill="none" fill-rule="evenodd" sketch:type="MSPage">
        <g id="Desktop-1280" sketch:type="MSArtboardGroup" transform="translate(-1216.000000, -19.000000)">
            <g id="logo" sketch:type="MSLayerGroup" transform="translate(1217.000000, 20.000000)">
                <g id="in-circle" transform="translate(0.000000, 8.080427)">
                    <mask id="mask-2" sketch:name="Oval 1" fill="white">
                        <use xlink:href="#path-1"></use>
                    </mask>
                    <use id="Oval-1" stroke="#92cd00" stroke-width="1.10000002" sketch:type="MSShapeGroup" xlink:href="#path-1"></use>
                    <path d="M2.10852713,5.9356986 L29.124031,11.9426096 L29.124031,13.6779394 L23.9844961,12.4765572 L24.248062,14.211887 L29.3875969,15.2797823 L31.627907,16.8816252 L34.7906977,15.680243 L36.6356589,5.66872478 L33.8682171,-1.40608147 L27.1472868,-3.94233276 L5.40310078,-4.60976731 L0.395348837,1.93109129 L2.10852713,5.9356986 Z" id="Path-86" sketch:type="MSShapeGroup" mask="url(#mask-2)"></path>
                    <g id="face" mask="url(#mask-2)" sketch:type="MSShapeGroup">
                        <g transform="translate(7.717829, 2.812801)">
                            <path d="M1.46952322,13.1175604 L1.3751938,12.0665202 L1.3751938,10.998625 C1.3751938,10.7316511 1.24341085,10.0642166 1.24341085,10.0642166 L1.24341085,8.06191293 L0.979844961,5.25868781 C0.979844961,5.25868781 0.71627907,3.38987107 0.71627907,2.72243652 C0.71627907,2.05500196 0.848062016,0.453159041 0.848062016,0.453159041 L16.9255814,0.586645952 L17.1891473,0.987106682 L17.3209302,2.85592343 C17.3209302,2.85592343 17.1891473,4.99171399 17.1891473,5.25868781 L17.1891473,7.7949391 L17.1891473,10.0642166 C17.1891473,10.5981642 17.3209302,12.0665202 17.3209302,12.466981 L17.3209302,12.9272712 C15.0040767,10.1620342 11.5224806,8.72934748 11.5224806,8.72934748 C11.5224806,8.72934748 8.88682171,8.19539984 7.17364341,8.72934748 C5.61087418,9.21641701 3.60946944,10.8142544 1.46952322,13.1175604 Z" id="face-2" stroke="#92cd00" stroke-width="1" fill="none"></path>
                            <path d="M13.0252898,4.8626037 L12.7133632,5.71974656 C12.7133632,5.71974656 13.4931797,6.3626037 14.5849228,6.3626037 C15.676666,6.3626037 16.6124458,5.50546084 16.6124458,5.50546084 L16.3005192,4.8626037 C16.3005192,4.8626037 15.5207027,5.29117513 14.7408861,5.29117513 C13.9610696,5.29117513 13.0252898,4.8626037 13.0252898,4.8626037 Z" id="Path-141" stroke="none" fill="#92cd00" fill-rule="evenodd"></path>
                            <path d="M2.88767513,5.17772034 L2.57574852,5.89772034 C2.57574852,5.89772034 3.35556504,6.79772034 4.29134485,6.79772034 C5.22712467,6.79772034 6.16290449,5.89772034 6.16290449,5.89772034 L6.00694118,5.35772034 C6.00694118,5.35772034 5.38308797,5.71772034 4.60327146,5.71772034 C3.82345495,5.71772034 2.88767513,5.17772034 2.88767513,5.17772034 Z" id="Path-142" stroke="none" fill="#92cd00" fill-rule="evenodd"></path>
                        </g>
                    </g>
                    <g id="beard" mask="url(#mask-2)">
                        <g transform="translate(7.906977, 12.127924)">
                            <mask id="mask-4" sketch:name="beard 2" fill="white">
                                <use xlink:href="#path-3"></use>
                            </mask>
                            <use id="beard-2" stroke="#92cd00" stroke-width="1" fill="none" sketch:type="MSShapeGroup" xlink:href="#path-3"></use>
                        </g>
                    </g>
                    <path d="M15.0232558,17.5490598 L14.8914729,18.8015598 L19.7674419,19.2190597 L19.6356589,17.7578098 L15.0232558,17.5490598 Z" id="mouth" fill="#92cd00" sketch:type="MSShapeGroup" mask="url(#mask-2)"></path>
                    <path d="M24.9069767,22.6215624 C24.9069767,22.6215624 24.9069767,24.623866 24.9069767,24.623866 C24.9069767,24.623866 25.1958853,25.9115005 25.1958853,25.9115005 L25.3023256,27.5605781 C25.3023256,27.5605781 25.2640064,28.6085728 25.2448469,29.1325702 C25.2200788,29.809955 25.1705426,31.1647246 25.1705426,31.1647246" id="Path-31" stroke="#92cd00" stroke-width="0.622950738" fill="#92cd00" sketch:type="MSShapeGroup" mask="url(#mask-2)"></path>
                </g>
                <path d="M18.8449612,3.33717276 C18.8449612,3.33717276 21.6124031,1.2013822 23.1937984,2.5362513 C24.7751938,3.8711204 28.0697674,1.46835601 28.0697674,1.46835601 C28.0697674,1.46835601 28.5968992,4.40506804 26.8837209,5.73993714 C26.8837209,5.73993714 28.3333333,6.40737169 28.3333333,7.47526697 C28.3333333,8.54316226 27.0155039,8.94362299 27.0155039,8.94362299 C27.0155039,8.94362299 28.9922481,10.6789528 27.1472868,12.6812565 C27.1472868,13.6156648 27.1472868,11.6133612 24.7751938,11.6133612 C22.4031008,11.6133612 20.1627907,12.5477696 18.9767442,15.3509947 C17.7906977,18.1542198 19.8992248,20.823958 19.8992248,20.823958 L18.1860465,22.5592878 C18.1860465,22.5592878 17.6589147,23.0932355 17.2635659,23.0932355 C16.8682171,23.0932355 16.0775194,22.5592878 16.0775194,22.5592878 C16.0775194,22.5592878 14.2325581,21.0909318 14.496124,20.6904711 C14.7596899,20.2900104 16.8682171,16.9528376 15.6821705,15.2175078 C14.496124,13.4821779 12.5214306,11.2129005 7.90697674,11.2129005 C4.61240314,11.2129005 6.3255814,6.80783242 6.3255814,6.80783242 C6.3255814,6.80783242 3.29457366,6.00691096 5.27131783,3.8711204 C5.4031008,3.73763349 3.26563271,2.59488134 4.48062016,0.13348691 C4.74418607,-0.400460731 6.58914734,2.80322512 9.35658915,2.6697382 C12.124031,2.53625129 13.7054264,2.66973813 14.2325581,3.20368585" id="forehead" stroke="#92cd00" sketch:type="MSShapeGroup"></path>
                <path d="M17.6589147,13.2152041 C17.6589147,13.2152041 17.1317829,9.87803136 20.2945736,9.87803136 C23.4573643,9.87803136 22.9302326,7.47526697 22.9302326,7.47526697" id="Path-10" stroke="#92cd00" sketch:type="MSShapeGroup"></path>
                <path d="M16.3410853,13.0817172 C16.3410853,13.0817172 17,10.0115183 13.0465116,10.0115183 C9.09302326,10.0115183 10.4108527,7.47526697 10.4108527,7.47526697" id="Path-11" stroke="#92cd00" sketch:type="MSShapeGroup"></path>
                <path d="M27.4108527,9.47757063 L25.8294574,8.67664917" id="Path-21" stroke="#92cd00" stroke-width="0.72300005" sketch:type="MSShapeGroup"></path>
                <path d="M4.62043036,3.08887755 C4.62043036,3.08887755 4.456085,2.78159238 5.28092692,3.57702544 C6.10576884,4.3724585 6.14411115,5.29511644 7.58303674,5.68662423" id="Path-20" stroke="#92cd00" stroke-width="0.72300005" sketch:type="MSShapeGroup"></path>
                <path d="M12.2589719,2.46173412 C15.5961505,2.52088353 15.533602,1.64339081 18.9435671,1.98444006" id="Path-164" stroke="#92cd00" sketch:type="MSShapeGroup"></path>
            </g>
        </g>
    </g>
</svg>
