<?xml version="1.0" encoding="UTF-8" standalone="no"?>
<svg width="241px" height="87px" viewBox="0 0 241 87" version="1.1" xmlns="http://www.w3.org/2000/svg" xmlns:xlink="http://www.w3.org/1999/xlink" xmlns:sketch="http://www.bohemiancoding.com/sketch/ns">
    <!-- Generator: Sketch Beta 3.3 (11893) - http://www.bohemiancoding.com/sketch -->
    <title>podstavec-monitoru</title>
    <desc>Created with Sketch Beta.</desc>
    <defs>
        <linearGradient x1="50%" y1="8.6714764%" x2="50%" y2="99.2287149%" id="linearGradient-1">
            <stop stop-color="#F1F1F1" offset="0%"></stop>
            <stop stop-color="#787878" offset="100%"></stop>
        </linearGradient>
        <linearGradient x1="50%" y1="50%" x2="50%" y2="100%" id="linearGradient-2">
            <stop stop-color="#C7C7C7" stop-opacity="0" offset="0%"></stop>
            <stop stop-color="#A1A1A1" stop-opacity="0.193626322" offset="34.0023119%"></stop>
            <stop stop-color="#868686" stop-opacity="0.331561666" offset="73.3876754%"></stop>
            <stop stop-color="#888888" stop-opacity="0.381943056" offset="93.5766103%"></stop>
            <stop stop-color="#666666" stop-opacity="0.5" offset="100%"></stop>
        </linearGradient>
        <path d="M200.86112,1 C201.321914,7.72963299 201.886185,17.1039593 202.179584,26.2706706 L202.179584,26.2706706 C202.807245,34.639398 203.378459,43.7304177 203.782154,53.0672228 C203.804988,53.5953516 203.839569,54.1129651 203.885438,54.6202785 C205.920935,63.9677153 210.190395,70.1352088 217.718032,73.7406453 C225.272123,77.3587528 232.509901,79.4363251 236.543405,80.4281055 C237.088264,80.5177126 237.51138,80.5987948 237.789863,80.682271 C237.956375,80.7321834 238.120923,80.7835302 238.282251,80.8361722 C239.275587,81.057333 239.831313,81.158614 239.831313,81.158614 C239.831313,81.158614 240.955509,81.7603235 240.93847,82.467664 C240.9398,82.5122534 240.934227,82.5568636 240.921338,82.6014491 C240.731568,83.4103241 238.916402,84.3137383 232.244992,84.6042086 C232.219235,84.60533 232.192749,84.606451 232.165537,84.6075714 C225.952356,85.1049062 173.431326,85.2448469 120.890444,85.1898441 C68.3495625,85.2448469 15.8285323,85.1049062 9.61535078,84.6075714 C9.58813907,84.606451 9.56165311,84.60533 9.5358958,84.6042086 C2.86448614,84.3137383 1.0493199,83.4103241 0.859549904,82.6014491 C0.846661663,82.5568636 0.84108854,82.5122534 0.842418289,82.467664 C0.82537924,81.7603235 1.94957533,81.158614 1.94957533,81.158614 C1.94957533,81.158614 2.50530138,81.057333 3.49863667,80.8361722 C3.6599648,80.7835302 3.82451356,80.7321834 3.99102514,80.682271 C4.26950813,80.5987948 4.69262391,80.5177126 5.23748306,80.4281055 C9.27098732,79.4363251 16.5087649,77.3587528 24.0628566,73.7406453 C31.5904917,70.1352093 35.8599517,63.9677169 37.8954494,54.6202822 C37.9413188,54.1129651 37.9759,53.5953516 37.9987347,53.0672228 C38.4024314,43.7303688 38.9736493,34.6393027 39.6013136,26.2703624 C39.8947158,17.1037491 40.4589791,7.72955755 40.9197685,1 L200.86112,1 Z" id="path-3"></path>
    </defs>
    <g id="Desktop" stroke="none" stroke-width="1" fill="none" fill-rule="evenodd" sketch:type="MSPage">
        <g id="Metaxa-Desktop" sketch:type="MSArtboardGroup" transform="translate(-837.000000, -336.000000)">
            <g id="header" sketch:type="MSLayerGroup" transform="translate(62.000000, -156.000000)">
                <g id="display" transform="translate(394.000000, 0.000000)">
                    <g id="Body">
                        <g id="podstavec-monitoru" transform="translate(380.500000, 491.360917)">
                            <path d="M0.968038447,83.4420778 C0.968038447,83.4420778 11.1978295,87.5894124 23.9319683,87.5894124 C36.6661071,87.5894123 208.660777,87.5894124 223.212296,87.5894124 C237.763815,87.5894123 239.879735,82.9163143 239.879735,82.9163143 L0.968038447,83.4420778 Z" id="Path-50" fill="url(#linearGradient-1)" sketch:type="MSShapeGroup"></path>
                            <mask id="mask-4" sketch:name="Path 49" fill="white">
                                <use xlink:href="#path-3"></use>
                            </mask>
                            <g id="Path-49">
                                <use fill="#CBCCCE" fill-rule="evenodd" sketch:type="MSShapeGroup" xlink:href="#path-3"></use>
                                <use fill="url(#linearGradient-2)" fill-rule="evenodd" xlink:href="#path-3"></use>
                                <use fill="none" xlink:href="#path-3"></use>
                            </g>
                            <rect id="Rectangle-186" fill-opacity="0.900000036" fill="#A5A7A8" sketch:type="MSShapeGroup" mask="url(#mask-4)" x="32.3232706" y="-9" width="173" height="24"></rect>
                        </g>
                    </g>
                </g>
            </g>
        </g>
    </g>
</svg>