<?xml version="1.0" encoding="UTF-8" standalone="no"?>
<!-- Generator: Avocode 1.0.1 - http://avocode.com -->
<svg xmlns="http://www.w3.org/2000/svg" xmlns:xlink="http://www.w3.org/1999/xlink" width="152" height="142" viewBox="0 0 152 142">
    <desc>Created with Avocode</desc>
    <path d="M100,37C100,31.503247577762792,102.58272853491074,26.631909240212487,106.64680321070234,23.572236789297644C105.84207332408003,24.27757772577938,105.27167759197326,27.09,107.91,27.09C112.52,27.09,114.5,29.36,115.68,31.1C116.87,32.83,114.76,36.17,114.5,36.57C114.23,36.97,116.08,38.44,116.08,38.44C116.08,38.44,116.87,38.97,117.26,38.97C117.66,38.97,118.19,38.44,118.19,38.44C118.19,38.44,119.9,36.7,119.9,36.7C119.9,36.7,117.79,34.03,118.98,31.23C120.16,28.43,122.4,27.49,124.78,27.49C127.15,27.49,127.15,29.5,127.15,28.56C128.99,26.56,127.02,24.82,127.02,24.82C127.02,24.82,127.44673033967548,24.689700659641076,127.76767422382672,23.98671422382671C131.6130056950067,27.0092943441595,134,31.715638892999845,134,37C134,46.418,126.418,54,117,54C107.582,54,100,46.418,100,37C100,37,100,37,100,37" fill="none" stroke="#282a3b" stroke-width="1.100000023841858" stroke-linecap="butt" stroke-linejoin="miter" />
    <path d="M 102.58 29.55 L 100.87 25.54 L 105.88 19 L 127.62 19.67 L 134.34 22.2 L 137.11 29.28 L 135.26 39.29 L 132.1 40.49 L 129.86 38.89 L 124.72 37.82 L 124.46 36.09 L 129.6 37.29 L 129.6 35.55 L 102.58 29.55 Z" fill="none" />
    <path d="M108.13,27C108.13,27,124.21,27.13,124.21,27.13C124.21,27.13,124.47,27.53,124.47,27.53C124.47,27.53,124.6,29.4,124.6,29.4C124.6,29.4,124.47,31.54,124.47,31.81C124.47,32.07,124.47,34.07,124.47,34.34C124.47,34.61,124.47,36.08,124.47,36.61C124.47,37.15,124.6,38.61,124.6,39.01C124.6,39.10834841944017,124.6,39.36024637313161,124.59999999999981,39.83120930232541C122.20249951325017,36.67406749594366,118.81,35.28,118.81,35.28C118.81,35.28,118.81,35.28,118.81,35.28C118.81,35.28,116.17,34.74,114.46,35.28C112.91353284759435,35.75652766905523,110.94669943646636,37.31630685097189,108.76864123562342,39.83848166435854C108.70539583876071,39.123322176755686,108.66,38.61,108.66,38.61C108.66,38.61,108.66,37.81,108.66,37.55C108.66,37.28,108.53,36.61,108.53,36.61C108.53,36.61,108.53,34.61,108.53,34.61C108.53,34.61,108.26,31.81,108.26,31.81C108.26,31.81,108,29.94,108,29.27C108,28.6,108.13,27,108.13,27C108.13,27,108.13,27,108.13,27" fill="none" stroke="#282a3b" stroke-width="1" stroke-linecap="butt" stroke-linejoin="miter" />
    <path d="M 120.31 32 C 120.31 32, 121.25 32.43, 122.03 32.43 C 122.81 32.43, 123.59 32, 123.59 32 L 123.9 32.64 C 123.9 32.64, 122.96 33.5, 121.87 33.5 C 120.78 33.5, 120 32.86, 120 32.86 L 120.31 32 Z" fill="#282a3b" />
    <path d="M 110.31 32 C 110.31 32, 111.25 32.54, 112.03 32.54 C 112.81 32.54, 113.43 32.18, 113.43 32.18 L 113.59 32.72 C 113.59 32.72, 112.65 33.62, 111.72 33.62 C 110.78 33.62, 110 32.72, 110 32.72 L 110.31 32 Z" fill="#282a3b" />
    <path d="M 119.33 36.13 C 119.33 36.13, 116.7 35.6, 114.98 36.13 C 113.27 36.67, 111.03 38.54, 108.66 41.21 C 108.13 42.01, 108.13 43.21, 108.13 43.21 L 108.26 45.48 L 108.4 51.08 C 108.4 51.08, 108.26 54.55, 108.26 54.82 C 108.26 55.09, 108.4 58.96, 108.4 58.96 C 108.4 58.96, 113.27 60.29, 118.54 60.29 C 123.81 60.29, 126.32 58.16, 126.32 58.16 L 126.19 55.89 L 126.19 54.15 L 126.71 53.89 L 126.58 51.88 L 126.58 49.22 C 126.58 49.22, 126.45 47.21, 126.45 46.68 C 126.45 46.15, 126.32 43.21, 126.32 43.21 C 126.32 42.01, 126.32 41.87, 125.79 41.21 C 123.55 37.87, 119.33 36.13, 119.33 36.13 Z" fill="none" stroke="#282a3b" stroke-width="1" stroke-linecap="butt" stroke-linejoin="miter" />
    <path d="M 115.26 42 L 119.88 42.21 L 120.01 43.67 L 115.13 43.25 L 115.26 42 Z" fill="#282a3b" />
    <path d="M 125.13 47 L 125.4 55.54 C 125.4 55.54, 125.44 54.19, 125.47 53.51 C 125.49 52.99, 125.53 51.94, 125.53 51.94 L 125.42 50.29 L 125.13 49 L 125.13 47" fill="#282a3b" stroke="#282a3b" stroke-width="0.622950737593607" stroke-linecap="butt" stroke-linejoin="miter" />
    <path d="M 118.63 19.34 C 118.63 19.34, 114.54 19.74, 114.02 19.2 C 113.49 18.67, 111.91 18.54, 109.14 18.67 C 106.37 18.8, 104.53 15.6, 104.26 16.13 C 103.05 18.59, 105.19 19.74, 105.05 19.87 C 103.08 22.01, 106.11 22.81, 106.11 22.81 C 106.11 22.81, 104.4 27.21, 107.69 27.21 C 112.3 27.21, 114.28 29.48, 115.47 31.22 C 116.65 32.95, 114.54 36.29, 114.28 36.69 C 114.02 37.09, 115.86 38.56, 115.86 38.56 C 115.86 38.56, 116.65 39.09, 117.05 39.09 C 117.44 39.09, 117.97 38.56, 117.97 38.56 L 119.68 36.82 C 119.68 36.82, 117.57 34.15, 118.76 31.35 C 119.95 28.55, 122.19 27.61, 124.56 27.61 C 126.93 27.61, 126.93 29.62, 126.93 28.68 C 128.78 26.68, 126.8 24.94, 126.8 24.94 C 126.8 24.94, 128.12 24.54, 128.12 23.48 C 128.12 22.41, 126.67 21.74, 126.67 21.74 C 128.38 20.41, 127.85 17.47, 127.85 17.47 C 127.85 17.47, 124.56 19.87, 122.98 18.54 C 121.4 17.2, 118.63 19.34, 118.63 19.34" fill="none" stroke="#282a3b" stroke-width="1" stroke-linecap="butt" stroke-linejoin="miter" />
    <path d="M 118 28.74 L 123.27 23 C 123.27 23, 123.8 25.4, 120.64 25.4 C 117.47 25.4, 118 28.74, 118 28.74" fill="none" stroke="#282a3b" stroke-width="1" stroke-linecap="butt" stroke-linejoin="miter" />
    <path d="M 116.06 28.61 L 110.13 23 C 110.13 23, 108.81 25.54, 112.77 25.54 C 116.72 25.54, 116.06 28.61, 116.06 28.61" fill="none" stroke="#282a3b" stroke-width="1" stroke-linecap="butt" stroke-linejoin="miter" />
    <path d="M 127.58 25.67 L 126 24.87 L 127.58 25.67" fill="none" stroke="#282a3b" stroke-width="0.7230000495910645" stroke-linecap="butt" stroke-linejoin="miter" />
    <path d="M 105.01 19.06 L 107.98 21.66 C 106.54 21.26, 106.5 20.34, 105.67 19.55 C 104.85 18.75, 105.01 19.06, 105.01 19.06" fill="none" stroke="#282a3b" stroke-width="0.7230000495910645" stroke-linecap="butt" stroke-linejoin="miter" />
    <path d="M 112 18.56 L 118.68 18.08 C 115.27 17.74, 115.34 18.62, 112 18.56" fill="none" stroke="#282a3b" stroke-width="1" stroke-linecap="butt" stroke-linejoin="miter" />
</svg>