<?xml version="1.0" encoding="UTF-8" standalone="no"?>
<svg width="14px" height="15px" viewBox="0 0 14 15" version="1.1" xmlns="http://www.w3.org/2000/svg" xmlns:xlink="http://www.w3.org/1999/xlink" xmlns:sketch="http://www.bohemiancoding.com/sketch/ns">
    <defs></defs>
    <g id="Page-1" stroke="none" stroke-width="1" fill="none" fill-rule="evenodd" sketch:type="MSPage">
        <g id="all-pages-in-one" sketch:type="MSArtboardGroup" transform="translate(-1202.000000, -247.000000)">
            <g id="Home" sketch:type="MSLayerGroup" transform="translate(-64.000000, 40.000000)">
                <g id="we-plant-and-craft-app-to-endure" transform="translate(0.000000, 46.000000)">
                    <g id="lines" transform="translate(0.000000, 40.000000)"></g>
                </g>
                <g id="process:we-plant-and-craft-app-to-endure" transform="translate(0.000000, 46.000000)">
                    <g id="lines" transform="translate(0.000000, 40.000000)"></g>
                </g>
                <g id="menu:-homepage" transform="translate(1120.000000, 0.000000)" fill="#62A535" sketch:type="MSShapeGroup">
                    <g id="opened-menu">
                        <g id="illustrations" transform="translate(137.000000, 56.000000)">
                            <path d="M10.75,165.25 L10.75,159.620312 L15.8021875,162.756062 C15.8629375,162.793562 15.931375,162.8125 16,162.8125 C16.068625,162.8125 16.1370625,162.793562 16.1978125,162.756062 L21.25,159.620312 L21.25,165.25 L10.75,165.25 Z M11.875,159.435812 L11.133625,158.9755 L11.875,158.679062 L11.875,159.435812 Z M19.375,154.75 L19.375,158.130812 L19.375,158.133062 L19.375,159.901375 L16,161.996125 L12.625,159.901375 L12.625,158.133062 L12.625,158.130812 L12.625,154.75 L19.375,154.75 Z M20.866375,158.9755 L20.125,159.435812 L20.125,158.679062 L20.866375,158.9755 Z M21.7643125,158.526813 L20.125,157.871125 L20.125,154.375 C20.125,154.168 19.957,154 19.75,154 L12.25,154 C12.043,154 11.875,154.168 11.875,154.375 L11.875,157.871125 L10.2356875,158.526813 C10.08925,158.5855 10.0005625,158.726125 10.000375,158.875 L10,158.875 L10,165.625 C10,165.832 10.168,166 10.375,166 L21.625,166 C21.832,166 22,165.832 22,165.625 L22,158.875 L21.999625,158.875 C21.9994375,158.726125 21.91075,158.5855 21.7643125,158.526813 Z M16.75,156.25 L18.25,156.25 C18.457,156.25 18.625,156.082 18.625,155.875 C18.625,155.668 18.457,155.5 18.25,155.5 L16.75,155.5 C16.543,155.5 16.375,155.668 16.375,155.875 C16.375,156.082 16.543,156.25 16.75,156.25 Z M13.75,157.75 L18.25,157.75 C18.457,157.75 18.625,157.582 18.625,157.375 C18.625,157.168 18.457,157 18.25,157 L13.75,157 C13.543,157 13.375,157.168 13.375,157.375 C13.375,157.582 13.543,157.75 13.75,157.75 Z M13.75,159.25 L18.25,159.25 C18.457,159.25 18.625,159.082 18.625,158.875 C18.625,158.668 18.457,158.5 18.25,158.5 L13.75,158.5 C13.543,158.5 13.375,158.668 13.375,158.875 C13.375,159.082 13.543,159.25 13.75,159.25 Z" id="mail"></path>
                        </g>
                    </g>
                </g>
            </g>
        </g>
    </g>
</svg>