<?xml version="1.0" encoding="UTF-8" standalone="no"?>
<svg width="14px" height="15px" viewBox="0 0 14 15" version="1.1" xmlns="http://www.w3.org/2000/svg" xmlns:xlink="http://www.w3.org/1999/xlink" xmlns:sketch="http://www.bohemiancoding.com/sketch/ns">
    <defs></defs>
    <g id="Page-1" stroke="none" stroke-width="1" fill="none" fill-rule="evenodd" sketch:type="MSPage">
        <g id="all-pages-in-one" sketch:type="MSArtboardGroup" transform="translate(-1215.000000, -202.000000)">
            <g id="Home" sketch:type="MSLayerGroup" transform="translate(-64.000000, 40.000000)">
                <g id="we-plant-and-craft-app-to-endure" transform="translate(0.000000, 46.000000)">
                    <g id="lines" transform="translate(0.000000, 40.000000)"></g>
                </g>
                <g id="process:we-plant-and-craft-app-to-endure" transform="translate(0.000000, 46.000000)">
                    <g id="lines" transform="translate(0.000000, 40.000000)"></g>
                </g>
                <g id="menu:-homepage" transform="translate(1120.000000, 0.000000)">
                    <g id="opened-menu">
                        <g id="illustrations" transform="translate(137.000000, 56.000000)" fill="#62A535" sketch:type="MSShapeGroup">
                            <path d="M23.75,120.25 L23.75,116.5 L27.6875,116.5 L27.6875,117.25 C27.6875,117.457 27.8555,117.625 28.0625,117.625 L29.9375,117.625 C30.1446875,117.625 30.3125,117.457 30.3125,117.25 L30.3125,116.5 L34.25,116.5 L34.25,120.25 L23.75,120.25 Z M28.4375,116.5 L29.5625,116.5 L29.5625,116.875 L28.4375,116.875 L28.4375,116.5 Z M34.25,115.75 L23.75,115.75 L23.75,114.25 L34.25,114.25 L34.25,115.75 Z M29,112.75 C29.813,112.75 30.12125,113.17075 30.2391875,113.5 L27.7604375,113.5 C27.878375,113.172625 28.188125,112.75 29,112.75 L29,112.75 Z M34.625,113.5 L31.0113125,113.5 C30.887,112.952875 30.4608125,112 29,112 C27.5391875,112 27.113,112.952875 26.9886875,113.5 L23.375,113.5 C23.168,113.5 23,113.668 23,113.875 L23,120.625 C23,120.832 23.168,121 23.375,121 L34.625,121 C34.8321875,121 35,120.832 35,120.625 L35,113.875 C35,113.668 34.8321875,113.5 34.625,113.5 L34.625,113.5 Z" id="work"></path>
                        </g>
                    </g>
                </g>
            </g>
        </g>
    </g>
</svg>