<?xml version="1.0" encoding="UTF-8" standalone="no"?>
<svg width="14px" height="15px" viewBox="0 0 14 15" version="1.1" xmlns="http://www.w3.org/2000/svg" xmlns:xlink="http://www.w3.org/1999/xlink" xmlns:sketch="http://www.bohemiancoding.com/sketch/ns">
    <defs></defs>
    <g id="Page-1" stroke="none" stroke-width="1" fill="none" fill-rule="evenodd" sketch:type="MSPage">
        <g id="all-pages-in-one" sketch:type="MSArtboardGroup" transform="translate(-1191.000000, -172.000000)">
            <g id="Home" sketch:type="MSLayerGroup" transform="translate(-64.000000, 40.000000)">
                <g id="we-plant-and-craft-app-to-endure" transform="translate(0.000000, 46.000000)">
                    <g id="lines" transform="translate(0.000000, 40.000000)"></g>
                </g>
                <g id="process:we-plant-and-craft-app-to-endure" transform="translate(0.000000, 46.000000)">
                    <g id="lines" transform="translate(0.000000, 40.000000)"></g>
                </g>
                <g id="menu:-homepage" transform="translate(1120.000000, 0.000000)" fill="#45270C" sketch:type="MSShapeGroup">
                    <g id="opened-menu">
                        <g id="illustrations" transform="translate(137.000000, 56.000000)">
                            <path d="M2.625,80.2802688 L2.625,81.6250188 L1.28025,81.6250188 L2.625,80.2802688 Z M8.25,79.7500187 L8.25,90.2500187 L0.75,90.2500187 L0.75,82.3750187 L2.625,82.3750187 C3.038625,82.3750187 3.375,82.0386437 3.375,81.6250187 L3.375,79.7500187 L8.25,79.7500187 Z M8.25,91.0000187 C8.663625,91.0000187 9,90.6636437 9,90.2500187 L9,79.7500187 C9,79.3363937 8.663625,79.0000187 8.25,79.0000187 L3.375,79.0000187 C3.067875,79.0000187 2.68725,79.1577062 2.46975,79.3750187 L0.375,81.4695812 C0.1576875,81.6868937 0,82.0675187 0,82.3750187 L0,90.2500187 C0,90.6636437 0.336375,91.0000187 0.75,91.0000187 L8.25,91.0000187 Z M4.5,82 L6.75,82 C6.957,82 7.125,81.832 7.125,81.625 C7.125,81.418 6.957,81.25 6.75,81.25 L4.5,81.25 C4.293,81.25 4.125,81.418 4.125,81.625 C4.125,81.832 4.293,82 4.5,82 Z M6.75,83.125 L2.25,83.125 C2.043,83.125 1.875,83.293 1.875,83.5 C1.875,83.707 2.043,83.875 2.25,83.875 L6.75,83.875 C6.957,83.875 7.125,83.707 7.125,83.5 C7.125,83.293 6.957,83.125 6.75,83.125 Z M6.75,85 L2.25,85 C2.043,85 1.875,85.168 1.875,85.375 C1.875,85.582 2.043,85.75 2.25,85.75 L6.75,85.75 C6.957,85.75 7.125,85.582 7.125,85.375 C7.125,85.168 6.957,85 6.75,85 Z M6.75,86.875 L2.25,86.875 C2.043,86.875 1.875,87.043 1.875,87.25 C1.875,87.457 2.043,87.625 2.25,87.625 L6.75,87.625 C6.957,87.625 7.125,87.457 7.125,87.25 C7.125,87.043 6.957,86.875 6.75,86.875 Z M6.75,88.75 L2.25,88.75 C2.043,88.75 1.875,88.918 1.875,89.125 C1.875,89.332 2.043,89.5 2.25,89.5 L6.75,89.5 C6.957,89.5 7.125,89.332 7.125,89.125 C7.125,88.918 6.957,88.75 6.75,88.75 Z" id="company"></path>
                        </g>
                    </g>
                </g>
            </g>
        </g>
    </g>
</svg>