<?xml version="1.0" encoding="UTF-8" standalone="no"?>
<svg width="14px" height="15px" viewBox="0 0 14 15" version="1.1" xmlns="http://www.w3.org/2000/svg" xmlns:xlink="http://www.w3.org/1999/xlink" xmlns:sketch="http://www.bohemiancoding.com/sketch/ns">
    <defs></defs>
    <g id="Page-1" stroke="none" stroke-width="1" fill="none" fill-rule="evenodd" sketch:type="MSPage">
        <g id="all-pages-in-one" sketch:type="MSArtboardGroup" transform="translate(-1216.000000, -139.000000)">
            <g id="Home" sketch:type="MSLayerGroup" transform="translate(-64.000000, 40.000000)">
                <g id="we-plant-and-craft-app-to-endure" transform="translate(0.000000, 46.000000)">
                    <g id="lines" transform="translate(0.000000, 40.000000)"></g>
                </g>
                <g id="process:we-plant-and-craft-app-to-endure" transform="translate(0.000000, 46.000000)">
                    <g id="lines" transform="translate(0.000000, 40.000000)"></g>
                </g>
                <g id="menu:-homepage" transform="translate(1120.000000, 0.000000)">
                    <g id="opened-menu">
                        <g id="illustrations" transform="translate(137.000000, 56.000000)" fill="#62A535" sketch:type="MSShapeGroup">
                            <path d="M28.5,54.25 C28.293,54.25 28.125,54.418 28.125,54.625 L28.125,57.25 L26.625,57.25 L26.625,52 C26.625,51.793 26.4571875,51.625 26.25,51.625 L25.28025,51.625 L30,46.90525 L34.71975,51.625 L33.75,51.625 C33.543,51.625 33.375,51.793 33.375,52 L33.375,57.25 L31.875,57.25 L31.875,54.625 C31.875,54.418 31.7071875,54.25 31.5,54.25 L28.5,54.25 Z M31.5,58 L33.75,58 C33.9571875,58 34.125,57.832 34.125,57.625 L34.125,52.375 L35.625,52.375 C35.7766875,52.375 35.9135625,52.2836875 35.9715,52.143625 C36.029625,52.003375 35.997375,51.842125 35.890125,51.734875 L30.265125,46.109875 C30.1186875,45.9634375 29.8813125,45.9634375 29.734875,46.109875 L24.109875,51.734875 C24.002625,51.842125 23.97075,52.003375 24.0285,52.143625 C24.0868125,52.2836875 24.2233125,52.375 24.375,52.375 L25.875,52.375 L25.875,57.625 C25.875,57.832 26.043,58 26.25,58 L28.5,58 C28.7071875,58 28.875,57.832 28.875,57.625 L28.875,55 L31.125,55 L31.125,57.625 C31.125,57.832 31.293,58 31.5,58 L31.5,58 Z" id="HOME"></path>
                        </g>
                    </g>
                </g>
            </g>
        </g>
    </g>
</svg>